<svg width="175" height="88" viewBox="0 0 175 88" fill="none" xmlns="http://www.w3.org/2000/svg">
<g clip-path="url(#clip0_1_50)">
<path d="M-1.28187e-05 0L-0.0600128 87.3H174.72V0H87.24H-1.28187e-05Z" fill="#2A2925"/>
<path d="M29.16 29.16L-0.0600128 58.32V29.16H29.16Z" fill="#FAB318"/>
<path d="M0 0V29.16H29.16L0 0Z" fill="#365953"/>
<path d="M29.16 0V29.16L0 0H29.16Z" fill="#FAB318"/>
<path d="M-0.180008 58.17V87.33L28.98 58.17H-0.180008Z" fill="#FAB318"/>
<path d="M57.9 29.16L29.16 0L57.9 0.21V29.16Z" fill="#205F6E"/>
<path d="M87.09 0.210007H58.05V87.3H87.18L87.09 0.210007Z" fill="#FFB902"/>
<path d="M87.33 29.16H57.9V0.210007L87.33 29.16Z" fill="#205F6E"/>
<path d="M87.24 58.2H58.04L57.9 29.16L87.24 58.2Z" fill="#365953"/>
<path d="M58.04 87.3L87.13 58.2H58.09L58.04 87.3Z" fill="#FDFAEB"/>
<path d="M29.18 29.11L-0.240005 58.32L29.37 58.21L29.18 29.11Z" fill="#FDFAEB"/>
<path d="M29.14 29.11L58.04 58.2L28.95 58.21L29.14 29.11Z" fill="#205F6E"/>
<path d="M58.2 87.3L28.98 58.17L-0.180008 87.33L58.2 87.3Z" fill="#365953"/>
<path d="M102.78 36.56C103.1 36.7 103.45 36.91 103.82 37C106.1 37.56 108.39 37.63 110.72 37.35C114.03 36.95 117.14 35.9 120.18 34.59C120.43 34.48 120.69 34.37 120.95 34.29C121.25 34.19 121.57 34.11 121.87 34.33C121.98 34.68 121.73 34.88 121.53 35.09C120.58 36.03 119.43 36.68 118.22 37.21C115.5 38.41 112.65 39.22 109.69 39.5C107.49 39.71 105.26 39.66 103.12 38.99C102.64 38.84 102.17 38.61 101.75 38.33C100.41 37.44 100.22 35.68 101.32 34.51C102.46 33.28 103.97 32.7 105.52 32.19C107.36 31.59 109.26 31.2 111.17 30.9C112.64 30.67 114.12 30.48 115.6 30.38C117.1 30.27 118.61 30.24 120.12 30.26C121.25 30.28 122.35 30.52 123.35 31.11C124.22 31.62 124.73 32.38 124.97 33.31C125.15 34 125.21 34.73 125.3 35.44C125.38 36.07 125.4 36.71 125.53 37.33C125.67 38 125.89 38.15 126.55 38.15C128.08 38.16 129.61 38.19 131.14 38.14C132.62 38.09 133.79 37.32 134.83 36.32C135.03 36.13 135.23 35.93 135.46 35.78C135.81 35.55 136.19 35.53 136.54 35.76C136.86 35.97 136.91 36.31 136.88 36.67C136.87 36.78 136.83 36.88 136.82 36.98C136.75 37.64 136.94 37.95 137.6 38.07C139 38.33 140.25 37.91 141.37 37.08C141.78 36.78 142.13 36.4 142.52 36.07C142.7 35.92 142.88 35.75 143.09 35.67C143.73 35.42 144.3 35.82 144.33 36.5C144.33 36.61 144.33 36.71 144.31 36.82C144.19 37.73 144.4 38.06 145.31 38.12C146.44 38.2 147.5 37.87 148.49 37.34C149.01 37.06 149.06 36.52 149.02 36C148.87 34.09 148.31 27.88 148.19 26.67C148.13 26.1 148.18 25.56 148.58 25.11C148.84 24.81 149.18 24.59 149.59 24.69C149.99 24.79 150.13 25.16 150.18 25.53C150.25 26.16 150.89 33.89 150.99 35.05C151.03 35.54 151.1 36.02 151.1 36.51C151.1 37.73 150.53 38.62 149.46 39.18C148.37 39.75 147.2 40.08 145.99 40.19C144.66 40.31 143.44 40.01 142.59 38.8C142.36 38.92 142.18 39.02 142 39.12C140.83 39.82 139.57 40.22 138.19 40.21C137.08 40.2 136.09 39.91 135.33 39.04C135.28 38.98 135.2 38.94 135.08 38.85C134.87 38.96 134.65 39.07 134.44 39.19C133.36 39.83 132.19 40.2 130.93 40.21C129.57 40.21 128.21 40.22 126.85 40.21C126.51 40.21 126.17 40.16 125.84 40.11C124.55 39.93 123.85 39.11 123.59 37.9C123.42 37.09 123.39 36.26 123.27 35.44C123.18 34.85 123.1 34.26 122.93 33.69C122.76 33.08 122.33 32.65 121.7 32.51C121.2 32.4 120.7 32.31 120.19 32.29C118.08 32.2 115.98 32.35 113.9 32.69C111.72 33.05 109.54 33.4 107.37 33.84C106.33 34.05 105.32 34.41 104.33 34.77C103.9 34.92 103.52 35.22 103.14 35.5C102.85 35.71 102.66 36.01 102.78 36.56Z" fill="#EEBE34"/>
<path d="M113.98 61.09C113.93 61.56 113.98 62.37 113.98 62.37C113.98 62.37 111.71 62.43 110.6 62.4C110.56 62.12 110.54 42.49 110.54 42.49H113.85C113.85 42.49 113.93 49.53 113.93 49.76C114 49.65 114.08 49.55 114.18 49.46C114.31 49.34 114.43 49.23 114.55 49.11C116.57 47.09 119.52 47.8 120.86 49.39C121.6 50.27 121.97 51.35 122.1 52.49C122.32 54.38 122.32 56.27 122.09 58.15C121.91 59.6 121.33 60.89 120.12 61.81C119.13 62.56 117.97 62.67 116.77 62.61C115.86 62.57 115.06 62.12 114.44 61.47C114.29 61.33 114.14 61.2 113.98 61.09ZM118.79 55.32C118.8 54.75 118.81 54.17 118.8 53.6C118.77 51.96 117.85 51.05 116.21 51.05C114.83 51.05 113.97 51.87 113.94 53.25C113.91 54.59 113.91 55.93 113.95 57.27C113.96 57.68 114.08 58.12 114.27 58.48C114.84 59.51 115.76 59.63 117.08 59.44C117.94 59.32 118.75 58.29 118.79 57.36C118.81 56.68 118.79 56 118.79 55.32Z" fill="#EEBE34"/>
<path d="M128.09 51.91C127.43 51.35 126.61 50.68 125.86 50.04C126.07 49.8 126.21 49.59 126.39 49.44C127.24 48.73 128.22 48.3 129.3 48.08C130.92 47.75 132.51 47.78 134.05 48.47C135.63 49.18 136.56 50.4 136.78 52.12C136.87 52.81 137.01 62.34 137.01 62.34L133.94 62.41L133.88 61.4L133.23 61.76C132.1 62.6 130.8 62.71 129.47 62.61C128.92 62.57 128.38 62.47 127.85 62.33C126.41 61.95 125.57 60.97 125.3 59.53C125.18 58.89 125.15 58.22 125.19 57.57C125.31 55.74 126.42 54.49 128.24 54.15C129.01 54 129.8 53.95 130.58 53.91C131.36 53.87 132.15 53.9 132.94 53.9C133.17 53.9 133.39 53.87 133.6 53.85C133.98 52.57 133.34 51.37 132.12 51.07C130.94 50.77 129.8 50.97 128.72 51.52C128.56 51.59 128.09 51.91 128.09 51.91ZM133.72 56.56C132.23 56.6 130.83 56.43 129.45 56.66C128.66 56.79 128.27 57.37 128.26 58.17C128.25 58.89 128.71 59.53 129.44 59.72C130.55 60.01 131.68 59.93 132.78 59.66C133.23 59.55 133.68 59.28 133.71 58.73C133.75 58.06 133.72 57.38 133.72 56.56Z" fill="#EEBE34"/>
<path d="M107.71 59.28C107.85 60.34 107.81 61.32 107.74 62.35C106.77 62.48 105.86 62.48 104.96 62.34C104.75 62.31 104.54 62.24 104.35 62.16C103.1 61.61 102.58 60.57 102.44 59.29C102.4 58.89 102.45 42.77 102.47 42.43C103.56 42.43 104.58 42.43 105.69 42.43C105.69 42.43 105.75 58.01 105.78 58.26C105.87 58.92 106.16 59.18 106.83 59.22C107.1 59.24 107.35 59.26 107.71 59.28Z" fill="#EEBE34"/>
<path d="M144.54 62.7C143.39 62.7 142.36 62.7 141.34 62.7C141.34 62.7 141.11 49.25 141.31 48.47L144.53 48.49C144.52 48.49 144.53 57.92 144.54 62.7Z" fill="#EEBE34"/>
<path d="M144.48 42.76C144.48 43.89 144.48 44.94 144.48 46.09H141.23V42.76C142.33 42.76 143.37 42.76 144.48 42.76Z" fill="#EEBE34"/>
<path d="M133.63 46.26C133.39 46.2 132.94 46.14 132.53 45.97C132.06 45.78 132.02 45.32 132.44 45.03C132.66 44.88 132.94 44.81 133.2 44.73C134.19 44.43 135.19 44.14 136.18 43.85C136.38 43.79 136.59 43.72 136.79 43.7C137.4 43.65 137.69 43.83 137.83 44.3C137.99 44.82 137.85 45.32 137.34 45.54C136.75 45.8 136.1 45.97 135.46 46.1C134.93 46.22 134.37 46.21 133.63 46.26Z" fill="#EEBE34"/>
<path d="M151.64 50.36C151.79 50.15 152.31 49.52 152.49 49.34C153.43 48.39 154.6 48.09 155.88 48.23C158.16 48.48 159.65 49.9 159.99 52.55C160.1 53.39 160.13 62.36 160.13 62.67L156.85 62.71C156.83 62.39 156.74 53.47 156.63 53.07C156.4 52.19 155.63 51.59 154.73 51.52C154.48 51.5 154.22 51.5 153.96 51.51C152.63 51.54 151.82 52.3 151.7 53.62C151.67 53.96 151.69 62.36 151.69 62.67L148.5 62.73C148.5 62.73 148.27 43.45 148.47 42.77C149.48 42.77 150.51 42.77 151.61 42.77C151.6 42.76 151.55 50.32 151.64 50.36Z" fill="#EEBE34"/>
</g>
<defs>
<clipPath id="clip0_1_50">
<rect width="174.73" height="87.29" fill="white"/>
</clipPath>
</defs>
</svg>
